<svg xmlns="http://www.w3.org/2000/svg" version="1.1" xmlns:xlink="http://www.w3.org/1999/xlink" xmlns:svgjs="http://svgjs.dev/svgjs" width="1000" height="623" viewBox="0 0 1000 623"><g transform="matrix(1,0,0,1,-0.6060396748785024,0.2522267206477409)"><svg viewBox="0 0 396 247" data-background-color="#dedede" preserveAspectRatio="xMidYMid meet" height="623" width="1000" xmlns="http://www.w3.org/2000/svg" xmlns:xlink="http://www.w3.org/1999/xlink"><g id="tight-bounds" transform="matrix(1,0,0,1,0.23999199921877334,-0.09999999999999432)"><svg viewBox="0 0 395.52 247.2" height="247.2" width="395.52"><g><svg></svg></g><g><svg viewBox="0 0 395.52 247.2" height="247.2" width="395.52"><g><g><path xmlns="http://www.w3.org/2000/svg" d="M244.982 0h46.507l-15.422 58.875-44.044 0zM226.737 247.2h-56.165l-15.848-58.875 40.654 0 4.171 18.092 3.982-18.092h38.628zM104.031 0h47.938l13.571 58.875-45.661 0z" fill="#ffffff" fill-rule="nonzero" stroke="none" stroke-width="1" stroke-linecap="butt" stroke-linejoin="miter" stroke-miterlimit="10" stroke-dasharray="" stroke-dashoffset="0" font-family="none" font-weight="none" font-size="none" text-anchor="none" style="mix-blend-mode: normal" data-fill-palette-color="tertiary"></path></g></g><g transform="matrix(1,0,0,1,0,68.76440392257513)"><svg viewBox="0 0 395.52 109.67119215484972" height="109.67119215484972" width="395.52"><g><svg viewBox="0 0 566.8782182394649 157.18600829525482" height="109.67119215484972" width="395.52"><g transform="matrix(1,0,0,1,171.35821823946492,48.57275810193321)"><svg viewBox="0 0 395.52 60.0404920913884" height="60.0404920913884" width="395.52"><g><svg viewBox="0 0 395.52 60.0404920913884" height="60.0404920913884" width="395.52"><g><svg viewBox="0 0 395.52 60.0404920913884" height="60.0404920913884" width="395.52"><g transform="matrix(1,0,0,1,0,0)"><svg width="395.52" viewBox="-0.15000000596046448 -34.54999923706055 227.57998657226562 34.54999923706055" height="60.0404920913884" data-palette-color="#ffffff"><path d="M19.55-34.55L26.05-34.55 17 0 9.15 0-0.15-34.55 6.55-34.55 13.2-5.7 19.55-34.55ZM29.35-34.55L47.8-34.55 47.1-29.75 35.85-29.75 35.85-19.95 45.7-19.95 45.7-15.2 35.85-15.2 35.85-4.85 47.9-4.85 47.9 0 29.35 0 29.35-34.55ZM70 0L63.2-13.9 59.65-13.9 59.65 0 53.15 0 53.15-34.55 62.25-34.55Q75.3-34.55 75.3-24.4L75.3-24.4Q75.3-21.1 73.75-18.73 72.2-16.35 69.1-15.1L69.1-15.1 77.15 0 70 0ZM59.65-18.55L62.6-18.55Q65.7-18.55 67.15-19.95 68.6-21.35 68.6-24.4L68.6-24.4Q68.6-27.2 67.07-28.5 65.55-29.8 62.2-29.8L62.2-29.8 59.65-29.8 59.65-18.55ZM80.89-34.55L87.39-34.55 87.39 0 80.89 0 80.89-34.55ZM100.79 0L94.29 0 94.29-34.55 112.24-34.55 111.59-29.75 100.79-29.75 100.79-19.25 110.19-19.25 110.19-14.45 100.79-14.45 100.79 0ZM144.19-34.55L150.24-34.55 144.69 0 136.29 0 131.89-27.7 127.34 0 119.09 0 113.64-34.55 119.99-34.55 123.74-5.15 128.54-34.55 135.39-34.55 140.09-5.15 144.19-34.55ZM177.89 0L171.19 0 169.29-8.05 159.29-8.05 157.39 0 150.84 0 160.44-34.55 168.34-34.55 177.89 0ZM164.29-29.6L160.39-12.95 168.19-12.95 164.29-29.6ZM181.18-34.55L187.68-34.55 187.68-5.3 199.98-5.3 199.28 0 181.18 0 181.18-34.55ZM227.43 0L220.73 0 218.83-8.05 208.83-8.05 206.93 0 200.38 0 209.98-34.55 217.88-34.55 227.43 0ZM213.83-29.6L209.93-12.95 217.73-12.95 213.83-29.6Z" opacity="1" transform="matrix(1,0,0,1,0,0)" fill="#ffffff" class="undefined-text-0" data-fill-palette-color="primary" id="text-0"></path></svg></g></svg></g></svg></g></svg></g><g><svg viewBox="0 0 157.1840990284983 157.18600829525482" height="157.18600829525482" width="157.1840990284983"><g><svg xmlns="http://www.w3.org/2000/svg" xmlns:xlink="http://www.w3.org/1999/xlink" version="1.1" x="0" y="0" viewBox="5.412825107574463 5.195577621459961 79.76930236816406 79.77027130126953" enable-background="new 0 0 90 90" xml:space="preserve" height="157.18600829525482" width="157.1840990284983" class="icon-icon-0" data-fill-palette-color="accent" id="icon-0"><path d="M54.624 83.27c-10.792 1.801-22.246-1.411-30.727-8.272-8.062-6.522-13.088-16.744-12.728-27.17 0.349-10.096 5.499-20.182 14.078-25.707 8.769-5.647 20.783-5.62 29.498 0.129 8.154 5.379 12.661 15.857 9.907 25.391-1.424 4.931-4.572 9.475-9.052 12.082-4.663 2.714-10.561 3.268-15.615 1.341-4.544-1.733-8.418-5.448-9.851-10.154-1.47-4.826-0.243-10.416 3.327-14.027 3.452-3.492 8.998-4.743 13.484-2.567 4.259 2.065 6.884 7.148 5.307 11.755-0.85 2.483-2.859 4.611-5.423 5.317-2.69 0.741-5.774-0.221-7.439-2.493-1.629-2.222-1.495-5.503 0.597-7.389 1.054-0.95 2.599-1.429 3.984-1.015 0.41 0.122 2.233 0.566 2.058 1.209 0.087-0.652-1.341-0.82-1.755-0.934-1.29-0.356-2.733 0.004-3.719 0.904-1.739 1.586-1.995 4.459-0.597 6.34 1.417 1.906 4.102 2.721 6.348 1.971 2.287-0.765 3.875-3.013 4.245-5.344 0.746-4.703-3.812-8.759-8.323-8.569-4.774 0.201-8.548 4.373-9.111 8.971-1.056 8.621 8.8 14.488 16.466 12.536 8.546-2.177 12.86-12.372 10.766-20.465-2.34-9.045-11.891-14.664-20.877-14.543-9.785 0.131-18.28 7.23-21.955 16.011-4.038 9.649-2.194 21.17 4.201 29.364 6.485 8.309 16.93 13.113 27.352 13.664 5.766 0.305 11.749-0.537 17.004-3.006 4.955-2.328 8.907-6.258 11.976-10.734 6.303-9.194 8.662-20.938 6.135-31.824C79.845 17.355 61.052 3.689 41.936 5.329 23.164 6.939 7.154 22.991 5.551 41.756c-0.918 10.74 2.777 21.76 9.928 29.817 7.078 7.976 17.424 12.875 28.071 13.353 6.118 0.275 12.303-0.876 17.903-3.359-2.472 0.844-4.993 1.695-7.622 1.838 0.506-0.028 0.982-0.246 1.492-0.242-1.79-0.014-3.465 0.776-5.242 0.87 1.034-0.055 2.103-0.271 3.095-0.566 0.337-0.101 1.458-0.578 1.755-0.242-0.207-0.235-1.358 0.182-1.613 0.243-0.926 0.221-1.953 0.452-2.902 0.51 0.426-0.026 4.536-0.711 4.53-0.755 0.008 0.065-4.022 0.607-4.613 0.769 0.714-0.196 1.505-0.245 2.235-0.367 0.292-0.048 2.164-0.591 2.374-0.402C54.91 83.194 54.661 83.264 54.624 83.27 43.928 85.055 57.114 82.88 54.624 83.27z" fill="#ffffff" data-fill-palette-color="accent"></path></svg></g></svg></g></svg></g></svg></g></svg></g><defs></defs></svg><rect width="395.52" height="247.2" fill="none" stroke="none" visibility="hidden"></rect></g></svg></g></svg>